<?xml version="1.0" standalone="no"?>
<!DOCTYPE svg PUBLIC "-//W3C//DTD SVG 20010904//EN"
 "http://www.w3.org/TR/2001/REC-SVG-20010904/DTD/svg10.dtd">
<svg version="1.0" xmlns="http://www.w3.org/2000/svg"
 width="current" height="current" viewBox="0 0 512.000000 512.000000"
 preserveAspectRatio="xMidYMid meet">

<g transform="translate(0.000000,512.000000) scale(0.100000,-0.100000)"
fill="current" stroke="none">
<path d="M1370 5030 l0 -90 550 0 550 0 0 90 0 90 -550 0 -550 0 0 -90z"/>
<path d="M2650 5030 l0 -90 90 0 90 0 0 90 0 90 -90 0 -90 0 0 -90z"/>
<path d="M3020 5030 l0 -90 365 0 365 0 0 90 0 90 -365 0 -365 0 0 -90z"/>
<path d="M1370 4574 l0 -176 28 6 c56 14 149 67 196 113 53 53 88 108 117 183
l19 50 -180 0 -180 0 0 -176z"/>
<path d="M1900 4698 c-19 -84 -85 -210 -146 -276 -87 -96 -208 -168 -329 -196
l-50 -11 -3 -2108 -2 -2107 414 0 415 0 6 53 c3 28 64 813 135 1744 99 1301
132 1698 144 1721 17 33 34 42 76 42 42 0 59 -9 75 -41 12 -21 48 -453 145
-1721 71 -931 132 -1717 136 -1745 l5 -53 415 0 414 0 -2 2107 -3 2108 -50 11
c-121 28 -242 100 -329 196 -61 66 -127 192 -146 276 l-12 52 -93 0 -93 0 -4
-257 c-4 -291 -8 -313 -83 -388 -59 -58 -112 -77 -236 -83 -128 -6 -173 2
-205 33 l-24 24 0 336 0 335 -279 0 -279 0 -12 -52z"/>
<path d="M2650 4480 l0 -270 65 0 c57 0 69 3 90 25 l25 24 0 246 0 245 -90 0
-90 0 0 -270z"/>
<path d="M3409 4700 c29 -75 64 -130 117 -183 47 -46 140 -99 197 -113 l27 -6
0 176 0 176 -180 0 -180 0 19 -50z"/>
</g>
</svg>
