<?xml version="1.0" standalone="no"?>
<!DOCTYPE svg PUBLIC "-//W3C//DTD SVG 20010904//EN"
 "http://www.w3.org/TR/2001/REC-SVG-20010904/DTD/svg10.dtd">
<svg version="1.0" xmlns="http://www.w3.org/2000/svg"
 width="current" height="current" viewBox="0 0 512.000000 512.000000"
 preserveAspectRatio="xMidYMid meet">

<g transform="translate(0.000000,512.000000) scale(0.100000,-0.100000)"
fill="current" stroke="none">
<path d="M1465 5095 l-25 -24 0 -2511 0 -2511 25 -24 24 -25 1071 0 1071 0 24
25 25 24 0 2511 0 2511 -25 24 -24 25 -1071 0 -1071 0 -24 -25z m455 -175 l0
-40 -160 0 -160 0 0 40 0 40 160 0 160 0 0 -40z m560 0 l0 -40 -200 0 -200 0
0 40 0 40 200 0 200 0 0 -40z m198 29 c-10 -5 -22 -17 -27 -27 -9 -14 -10 -13
-11 11 0 23 4 27 28 27 23 -1 24 -2 10 -11z m362 -29 l0 -40 -115 0 c-101 0
-116 2 -122 18 -3 9 -15 27 -26 40 l-20 22 141 0 142 0 0 -40z m480 0 l0 -40
-160 0 -160 0 0 40 0 40 160 0 160 0 0 -40z m-1603 -316 c-7 -129 -27 -190
-86 -256 -41 -47 -142 -98 -193 -98 l-38 0 0 235 0 235 162 0 161 0 -6 -116z
m563 -181 c0 -291 0 -297 22 -320 28 -30 83 -31 115 -1 l23 21 0 299 0 298
200 0 200 0 0 -119 c0 -91 5 -134 20 -185 55 -177 224 -317 403 -333 l57 -6 0
-1958 0 -1959 -440 0 -440 0 0 1617 0 1617 -22 23 c-28 30 -83 31 -115 1 l-23
-21 0 -1619 0 -1618 -440 0 -440 0 0 1959 0 1958 58 6 c178 16 347 156 402
333 15 51 20 94 20 185 l0 119 200 0 200 0 0 -297z m1040 62 l0 -235 -38 0
c-51 0 -152 51 -193 98 -59 66 -79 127 -86 256 l-6 116 161 0 162 0 0 -235z"/>
</g>
</svg>
