<?xml version="1.0" standalone="no"?>
<!DOCTYPE svg PUBLIC "-//W3C//DTD SVG 20010904//EN"
 "http://www.w3.org/TR/2001/REC-SVG-20010904/DTD/svg10.dtd">
<svg version="1.0" xmlns="http://www.w3.org/2000/svg"
 width="current" height="current" viewBox="0 0 512.000000 512.000000"
 preserveAspectRatio="xMidYMid meet">

<g transform="translate(0.000000,512.000000) scale(0.100000,-0.100000)"
fill="current" stroke="none">
<path d="M1922 5076 c-97 -32 -152 -107 -152 -210 0 -88 45 -159 129 -201 55
-28 158 -18 213 20 134 95 119 304 -27 378 -46 23 -114 28 -163 13z"/>
<path d="M3700 4711 c-98 -20 -166 -80 -307 -269 -195 -261 -311 -362 -419
-362 -57 0 -94 22 -119 69 -7 15 -21 90 -30 167 -24 213 -49 280 -124 329 -53
35 -109 36 -161 1 -62 -41 -100 -130 -225 -526 -55 -172 -135 -284 -223 -311
-36 -10 -45 -9 -86 11 -57 27 -112 101 -156 208 -93 226 -154 352 -202 416
-155 206 -374 241 -536 86 -92 -89 -132 -190 -132 -333 0 -113 18 -186 72
-296 65 -132 138 -220 376 -451 227 -221 255 -258 218 -285 -50 -37 -217 -25
-511 37 -235 49 -432 62 -530 33 -88 -25 -133 -51 -201 -116 -191 -184 -157
-391 76 -460 33 -10 127 -14 360 -14 337 -1 433 -10 558 -57 169 -63 221 -171
146 -308 -87 -160 -391 -250 -846 -250 -344 -1 -502 -41 -607 -156 -118 -129
-120 -342 -4 -418 82 -54 162 -56 493 -11 473 64 832 86 926 57 99 -29 146
-85 152 -177 4 -56 0 -73 -26 -129 -46 -99 -110 -192 -196 -285 -85 -93 -120
-140 -162 -221 -66 -128 -16 -289 110 -358 46 -25 193 -22 268 5 148 54 315
205 501 450 136 180 200 249 301 324 92 69 272 160 361 183 120 32 275 17 380
-36 109 -56 163 -125 291 -368 118 -226 165 -299 241 -372 148 -140 336 -166
529 -73 158 77 286 275 271 420 -15 146 -109 229 -376 335 -354 140 -509 250
-591 417 -42 87 -51 180 -22 233 47 84 139 97 402 55 210 -34 309 -33 379 1
71 36 104 86 109 169 5 82 -11 128 -62 180 -62 62 -132 78 -289 70 -117 -7
-123 -6 -156 17 -57 39 -76 73 -74 131 2 65 23 116 70 168 70 77 150 104 363
120 80 6 177 17 215 25 188 38 310 159 333 330 18 135 -22 234 -116 290 -123
74 -272 67 -645 -30 -75 -20 -175 -40 -222 -45 -241 -28 -350 69 -304 267 21
91 115 263 222 407 170 230 219 326 220 435 2 169 -135 300 -283 271z m-1032
-764 c31 -28 29 -78 -7 -154 -72 -152 -215 -304 -344 -368 -77 -38 -184 -65
-257 -65 -60 0 -177 26 -207 45 -48 32 -53 95 -12 136 19 19 29 20 78 15 151
-18 189 -18 247 -1 135 39 259 155 335 313 32 66 47 86 71 96 37 16 65 11 96
-17z"/>
<path d="M197 3996 c-68 -19 -126 -64 -161 -127 -27 -47 -31 -64 -31 -129 0
-85 20 -133 77 -187 139 -133 372 -76 433 107 65 196 -119 391 -318 336z"/>
<path d="M4826 1875 c-21 -7 -56 -31 -77 -51 -103 -101 -87 -262 33 -341 36
-25 51 -28 119 -28 70 0 82 3 121 30 50 35 98 120 98 174 0 99 -64 190 -153
216 -62 18 -90 18 -141 0z"/>
<path d="M2765 816 c-126 -58 -214 -236 -202 -406 15 -219 166 -373 363 -374
113 0 195 64 245 191 33 85 34 260 1 355 -70 203 -251 307 -407 234z"/>
</g>
</svg>
