<?xml version="1.0" standalone="no"?>
<!DOCTYPE svg PUBLIC "-//W3C//DTD SVG 20010904//EN"
 "http://www.w3.org/TR/2001/REC-SVG-20010904/DTD/svg10.dtd">
<svg version="1.0" xmlns="http://www.w3.org/2000/svg"
 width="current" height="current" viewBox="0 0 512.000000 512.000000"
 preserveAspectRatio="xMidYMid meet">

<g transform="translate(0.000000,512.000000) scale(0.100000,-0.100000)"
fill="current" stroke="none">
<path d="M1787 4943 c-9 -9 -33 -65 -52 -124 -29 -87 -40 -108 -58 -112 -12
-3 -204 -38 -427 -78 l-405 -72 -423 -421 c-371 -371 -422 -425 -422 -452 0
-23 65 -122 290 -445 160 -227 298 -420 307 -426 38 -29 67 -15 294 147 l224
160 5 -1392 c5 -1337 6 -1395 24 -1431 24 -49 95 -110 144 -125 56 -17 2488
-17 2544 0 49 15 120 76 144 125 18 36 19 94 24 1431 l5 1393 225 -160 c226
-162 255 -177 293 -148 9 6 147 199 306 427 226 321 291 421 291 444 0 27 -52
82 -422 452 l-423 421 -405 72 c-223 40 -415 75 -427 78 -18 4 -29 25 -58 113
-20 59 -44 115 -54 124 -16 14 -92 16 -772 16 -697 0 -756 -1 -772 -17z m1148
-161 c-94 -56 -364 -202 -375 -202 -11 0 -281 146 -375 202 -29 17 -20 18 375
18 395 0 404 -1 375 -18z m-779 -169 c145 -81 264 -149 264 -153 0 -3 -41 -46
-90 -95 l-90 -90 -194 194 -193 193 15 49 c9 27 17 49 20 49 2 0 122 -66 268
-147z m1096 98 l15 -49 -193 -193 -194 -194 -93 93 c-86 87 -91 94 -72 105 78
45 511 286 516 287 3 0 12 -22 21 -49z m-1282 -396 c215 -214 239 -235 270
-235 30 0 49 16 177 142 l143 142 143 -142 c128 -126 147 -142 177 -142 31 0
56 21 271 236 l237 236 403 -72 404 -73 288 -286 c158 -157 286 -290 284 -295
-6 -19 -482 -695 -489 -696 -4 0 -80 52 -169 115 -173 123 -195 132 -243 94
l-26 -20 0 -1380 0 -1379 -1280 0 -1280 0 0 1379 0 1380 -26 20 c-48 38 -70
29 -242 -94 -88 -63 -164 -115 -169 -115 -7 1 -484 677 -490 696 -2 5 125 137
282 294 l285 285 387 71 c214 40 397 72 408 73 13 1 98 -77 255 -234z m-1497
-946 c219 -315 236 -342 220 -355 -10 -7 -23 -14 -29 -14 -8 0 -431 594 -468
658 -7 12 19 53 33 52 3 -1 113 -154 244 -341z m4442 321 c17 -19 17 -21 -7
-57 -91 -136 -440 -629 -449 -632 -6 -1 -18 4 -29 14 -17 16 -8 30 218 355
131 187 240 339 243 340 3 0 14 -9 24 -20z m-1080 -3312 c-4 -13 -16 -31 -27
-41 -19 -16 -93 -17 -1250 -17 l-1229 0 -24 25 c-14 13 -25 31 -25 40 0 13
132 15 1281 15 l1280 0 -6 -22z"/>
<path d="M2505 4055 c-73 -72 28 -178 109 -114 20 16 26 29 26 59 0 72 -84
106 -135 55z"/>
</g>
</svg>
